<svg width="182" height="32" viewBox="0 0 182 32" fill="none" xmlns="http://www.w3.org/2000/svg">
<path d="M28.1406 28.0938V31.1875H25.0156V28.0938H28.1406ZM25.0156 28.0938V25.0312H28.1406V28.0938H25.0156ZM25.0156 25.0312V21.8906H28.1406V25.0312H25.0156ZM25.0156 28.0938V31.1875H21.875V28.0938H25.0156ZM21.875 28.0938V25.0312H25.0156V28.0938H21.875ZM21.875 25.0312V21.8906H25.0156V25.0312H21.875ZM21.875 21.8906V18.7656H25.0156V21.8906H21.875ZM21.875 28.0938V31.1875H18.75V28.0938H21.875ZM18.75 28.0938V25.0312H21.875V28.0938H18.75ZM18.75 21.8906V18.7656H21.875V21.8906H18.75ZM18.75 28.0938V31.1875H15.6094V28.0938H18.75ZM15.6094 28.0938V25.0312H18.75V28.0938H15.6094ZM15.6094 21.8906V18.7656H18.75V21.8906H15.6094ZM15.6094 28.0938V31.1875H12.4688V28.0938H15.6094ZM12.4688 28.0938V25.0312H15.6094V28.0938H12.4688ZM12.4688 21.8906V18.7656H15.6094V21.8906H12.4688ZM12.4688 18.7656V15.625H15.6094V18.7656H12.4688ZM12.4688 15.625V12.5H15.6094V15.625H12.4688ZM12.4688 12.5V9.35938H15.6094V12.5H12.4688ZM12.4688 9.35938V6.21875H15.6094V9.35938H12.4688ZM12.4688 6.21875V3.15625H15.6094V6.21875H12.4688ZM9.40625 3.15625V0.015625H12.4688V3.15625H9.40625ZM12.4688 28.0938V31.1875H9.40625V28.0938H12.4688ZM9.40625 28.0938V25.0312H12.4688V28.0938H9.40625ZM9.40625 21.8906V18.7656H12.4688V21.8906H9.40625ZM9.40625 18.7656V15.625H12.4688V18.7656H9.40625ZM9.40625 15.625V12.5H12.4688V15.625H9.40625ZM9.40625 12.5V9.35938H12.4688V12.5H9.40625ZM9.40625 9.35938V6.21875H12.4688V9.35938H9.40625ZM9.40625 6.21875V3.15625H12.4688V6.21875H9.40625ZM6.26562 3.15625V0.015625H9.40625V3.15625H6.26562ZM9.40625 28.0938V31.1875H6.26562V28.0938H9.40625ZM6.26562 28.0938V25.0312H9.40625V28.0938H6.26562ZM3.14062 3.15625V0.015625H6.26562V3.15625H3.14062ZM6.26562 28.0938V31.1875H3.14062V28.0938H6.26562ZM3.14062 28.0938V25.0312H6.26562V28.0938H3.14062ZM0 3.15625V0.015625H3.14062V3.15625H0ZM0 28.0938V25.0312H3.14062V28.0938H0ZM0 25.0312V21.8906H3.14062V25.0312H0ZM0 21.8906V18.7656H3.14062V21.8906H0ZM0 18.7656V15.625H3.14062V18.7656H0ZM0 15.625V12.5H3.14062V15.625H0ZM0 12.5V9.35938H3.14062V12.5H0ZM0 9.35938V6.21875H3.14062V9.35938H0ZM0 6.21875V3.15625H3.14062V6.21875H0ZM53.1719 12.5V9.35938H56.25V12.5H53.1719ZM53.1719 9.35938V6.21875H56.25V9.35938H53.1719ZM53.1719 6.21875V3.15625H56.25V6.21875H53.1719ZM50.0469 3.15625V0.015625H53.1719V3.15625H50.0469ZM50.0469 21.8906V18.7656H53.1719V21.8906H50.0469ZM50.0469 18.7656V15.625H53.1719V18.7656H50.0469ZM50.0469 15.625V12.5H53.1719V15.625H50.0469ZM50.0469 12.5V9.35938H53.1719V12.5H50.0469ZM50.0469 9.35938V6.21875H53.1719V9.35938H50.0469ZM50.0469 6.21875V3.15625H53.1719V6.21875H50.0469ZM46.9062 3.15625V0.015625H50.0469V3.15625H46.9062ZM46.9062 21.8906V18.7656H50.0469V21.8906H46.9062ZM46.9062 18.7656V15.625H50.0469V18.7656H46.9062ZM46.9062 15.625V12.5H50.0469V15.625H46.9062ZM46.9062 12.5V9.35938H50.0469V12.5H46.9062ZM46.9062 9.35938V6.21875H50.0469V9.35938H46.9062ZM43.7812 3.15625V0.015625H46.9062V3.15625H43.7812ZM43.7812 21.8906V18.7656H46.9062V21.8906H43.7812ZM43.7812 18.7656V15.625H46.9062V18.7656H43.7812ZM43.7812 12.5V9.35938H46.9062V12.5H43.7812ZM43.7812 9.35938V6.21875H46.9062V9.35938H43.7812ZM40.6406 3.15625V0.015625H43.7812V3.15625H40.6406ZM40.6406 21.8906V18.7656H43.7812V21.8906H40.6406ZM40.6406 18.7656V15.625H43.7812V18.7656H40.6406ZM40.6406 12.5V9.35938H43.7812V12.5H40.6406ZM40.6406 9.35938V6.21875H43.7812V9.35938H40.6406ZM37.5 3.15625V0.015625H40.6406V3.15625H37.5ZM40.6406 28.0938V31.1875H37.5V28.0938H40.6406ZM37.5 28.0938V25.0312H40.6406V28.0938H37.5ZM37.5 25.0312V21.8906H40.6406V25.0312H37.5ZM37.5 21.8906V18.7656H40.6406V21.8906H37.5ZM37.5 18.7656V15.625H40.6406V18.7656H37.5ZM37.5 12.5V9.35938H40.6406V12.5H37.5ZM37.5 9.35938V6.21875H40.6406V9.35938H37.5ZM34.4375 3.15625V0.015625H37.5V3.15625H34.4375ZM37.5 28.0938V31.1875H34.4375V28.0938H37.5ZM34.4375 28.0938V25.0312H37.5V28.0938H34.4375ZM34.4375 25.0312V21.8906H37.5V25.0312H34.4375ZM34.4375 21.8906V18.7656H37.5V21.8906H34.4375ZM34.4375 18.7656V15.625H37.5V18.7656H34.4375ZM34.4375 12.5V9.35938H37.5V12.5H34.4375ZM34.4375 9.35938V6.21875H37.5V9.35938H34.4375ZM31.2969 3.15625V0.015625H34.4375V3.15625H31.2969ZM34.4375 28.0938V31.1875H31.2969V28.0938H34.4375ZM31.2969 28.0938V25.0312H34.4375V28.0938H31.2969ZM28.1719 3.15625V0.015625H31.2969V3.15625H28.1719ZM31.2969 28.0938V31.1875H28.1719V28.0938H31.2969ZM28.1719 28.0938V25.0312H31.2969V28.0938H28.1719ZM25.0312 3.15625V0.015625H28.1719V3.15625H25.0312ZM25.0312 28.0938V25.0312H28.1719V28.0938H25.0312ZM25.0312 25.0312V21.8906H28.1719V25.0312H25.0312ZM25.0312 21.8906V18.7656H28.1719V21.8906H25.0312ZM25.0312 18.7656V15.625H28.1719V18.7656H25.0312ZM25.0312 15.625V12.5H28.1719V15.625H25.0312ZM25.0312 12.5V9.35938H28.1719V12.5H25.0312ZM25.0312 9.35938V6.21875H28.1719V9.35938H25.0312ZM25.0312 6.21875V3.15625H28.1719V6.21875H25.0312ZM81.3281 28.0938V25.0312H84.4062V28.0938H81.3281ZM81.3281 25.0312V21.8906H84.4062V25.0312H81.3281ZM81.3281 21.8906V18.7656H84.4062V21.8906H81.3281ZM81.3281 18.7656V15.625H84.4062V18.7656H81.3281ZM81.3281 15.625V12.5H84.4062V15.625H81.3281ZM81.3281 12.5V9.35938H84.4062V12.5H81.3281ZM81.3281 9.35938V6.21875H84.4062V9.35938H81.3281ZM81.3281 28.0938V31.1875H78.2031V28.0938H81.3281ZM78.2031 28.0938V25.0312H81.3281V28.0938H78.2031ZM78.2031 25.0312V21.8906H81.3281V25.0312H78.2031ZM78.2031 21.8906V18.7656H81.3281V21.8906H78.2031ZM78.2031 18.7656V15.625H81.3281V18.7656H78.2031ZM78.2031 15.625V12.5H81.3281V15.625H78.2031ZM78.2031 12.5V9.35938H81.3281V12.5H78.2031ZM78.2031 9.35938V6.21875H81.3281V9.35938H78.2031ZM78.2031 6.21875V3.15625H81.3281V6.21875H78.2031ZM75.0625 3.15625V0.015625H78.2031V3.15625H75.0625ZM78.2031 28.0938V31.1875H75.0625V28.0938H78.2031ZM75.0625 28.0938V25.0312H78.2031V28.0938H75.0625ZM75.0625 25.0312V21.8906H78.2031V25.0312H75.0625ZM75.0625 15.625V12.5H78.2031V15.625H75.0625ZM75.0625 6.21875V3.15625H78.2031V6.21875H75.0625ZM71.9375 3.15625V0.015625H75.0625V3.15625H71.9375ZM75.0625 28.0938V31.1875H71.9375V28.0938H75.0625ZM71.9375 28.0938V25.0312H75.0625V28.0938H71.9375ZM68.7969 3.15625V0.015625H71.9375V3.15625H68.7969ZM71.9375 28.0938V31.1875H68.7969V28.0938H71.9375ZM68.7969 28.0938V25.0312H71.9375V28.0938H68.7969ZM68.7969 21.8906V18.7656H71.9375V21.8906H68.7969ZM68.7969 18.7656V15.625H71.9375V18.7656H68.7969ZM68.7969 12.5V9.35938H71.9375V12.5H68.7969ZM68.7969 9.35938V6.21875H71.9375V9.35938H68.7969ZM65.6562 3.15625V0.015625H68.7969V3.15625H65.6562ZM68.7969 28.0938V31.1875H65.6562V28.0938H68.7969ZM65.6562 28.0938V25.0312H68.7969V28.0938H65.6562ZM65.6562 21.8906V18.7656H68.7969V21.8906H65.6562ZM65.6562 18.7656V15.625H68.7969V18.7656H65.6562ZM65.6562 12.5V9.35938H68.7969V12.5H65.6562ZM65.6562 9.35938V6.21875H68.7969V9.35938H65.6562ZM62.5938 3.15625V0.015625H65.6562V3.15625H62.5938ZM65.6562 28.0938V31.1875H62.5938V28.0938H65.6562ZM62.5938 28.0938V25.0312H65.6562V28.0938H62.5938ZM62.5938 21.8906V18.7656H65.6562V21.8906H62.5938ZM62.5938 18.7656V15.625H65.6562V18.7656H62.5938ZM62.5938 12.5V9.35938H65.6562V12.5H62.5938ZM62.5938 9.35938V6.21875H65.6562V9.35938H62.5938ZM59.4531 3.15625V0.015625H62.5938V3.15625H59.4531ZM62.5938 28.0938V31.1875H59.4531V28.0938H62.5938ZM59.4531 28.0938V25.0312H62.5938V28.0938H59.4531ZM56.3281 3.15625V0.015625H59.4531V3.15625H56.3281ZM59.4531 28.0938V31.1875H56.3281V28.0938H59.4531ZM56.3281 28.0938V25.0312H59.4531V28.0938H56.3281ZM53.1875 3.15625V0.015625H56.3281V3.15625H53.1875ZM53.1875 28.0938V25.0312H56.3281V28.0938H53.1875ZM53.1875 25.0312V21.8906H56.3281V25.0312H53.1875ZM53.1875 21.8906V18.7656H56.3281V21.8906H53.1875ZM53.1875 18.7656V15.625H56.3281V18.7656H53.1875ZM53.1875 15.625V12.5H56.3281V15.625H53.1875ZM53.1875 12.5V9.35938H56.3281V12.5H53.1875ZM53.1875 9.35938V6.21875H56.3281V9.35938H53.1875ZM53.1875 6.21875V3.15625H56.3281V6.21875H53.1875ZM96.9531 28.0938V31.1875H93.8125V28.0938H96.9531ZM93.8125 28.0938V25.0312H96.9531V28.0938H93.8125ZM93.8125 25.0312V21.8906H96.9531V25.0312H93.8125ZM93.8125 21.8906V18.7656H96.9531V21.8906H93.8125ZM93.8125 18.7656V15.625H96.9531V18.7656H93.8125ZM93.8125 15.625V12.5H96.9531V15.625H93.8125ZM93.8125 12.5V9.35938H96.9531V12.5H93.8125ZM93.8125 9.35938V6.21875H96.9531V9.35938H93.8125ZM93.8125 6.21875V3.15625H96.9531V6.21875H93.8125ZM90.75 3.15625V0.015625H93.8125V3.15625H90.75ZM93.8125 28.0938V31.1875H90.75V28.0938H93.8125ZM90.75 28.0938V25.0312H93.8125V28.0938H90.75ZM90.75 25.0312V21.8906H93.8125V25.0312H90.75ZM90.75 21.8906V18.7656H93.8125V21.8906H90.75ZM90.75 18.7656V15.625H93.8125V18.7656H90.75ZM90.75 15.625V12.5H93.8125V15.625H90.75ZM90.75 12.5V9.35938H93.8125V12.5H90.75ZM90.75 9.35938V6.21875H93.8125V9.35938H90.75ZM90.75 6.21875V3.15625H93.8125V6.21875H90.75ZM87.6094 3.15625V0.015625H90.75V3.15625H87.6094ZM90.75 28.0938V31.1875H87.6094V28.0938H90.75ZM87.6094 28.0938V25.0312H90.75V28.0938H87.6094ZM84.4844 3.15625V0.015625H87.6094V3.15625H84.4844ZM87.6094 28.0938V31.1875H84.4844V28.0938H87.6094ZM84.4844 28.0938V25.0312H87.6094V28.0938H84.4844ZM81.3438 3.15625V0.015625H84.4844V3.15625H81.3438ZM81.3438 28.0938V25.0312H84.4844V28.0938H81.3438ZM81.3438 25.0312V21.8906H84.4844V25.0312H81.3438ZM81.3438 21.8906V18.7656H84.4844V21.8906H81.3438ZM81.3438 18.7656V15.625H84.4844V18.7656H81.3438ZM81.3438 15.625V12.5H84.4844V15.625H81.3438ZM81.3438 12.5V9.35938H84.4844V12.5H81.3438ZM81.3438 9.35938V6.21875H84.4844V9.35938H81.3438ZM81.3438 6.21875V3.15625H84.4844V6.21875H81.3438ZM125.031 28.0938V31.1875H121.953V28.0938H125.031ZM121.953 28.0938V25.0312H125.031V28.0938H121.953ZM121.953 25.0312V21.8906H125.031V25.0312H121.953ZM121.953 21.8906V18.7656H125.031V21.8906H121.953ZM121.953 18.7656V15.625H125.031V18.7656H121.953ZM121.953 15.625V12.5H125.031V15.625H121.953ZM121.953 12.5V9.35938H125.031V12.5H121.953ZM121.953 9.35938V6.21875H125.031V9.35938H121.953ZM121.953 6.21875V3.15625H125.031V6.21875H121.953ZM118.828 3.15625V0.015625H121.953V3.15625H118.828ZM121.953 28.0938V31.1875H118.828V28.0938H121.953ZM118.828 28.0938V25.0312H121.953V28.0938H118.828ZM118.828 25.0312V21.8906H121.953V25.0312H118.828ZM118.828 21.8906V18.7656H121.953V21.8906H118.828ZM118.828 18.7656V15.625H121.953V18.7656H118.828ZM118.828 15.625V12.5H121.953V15.625H118.828ZM118.828 12.5V9.35938H121.953V12.5H118.828ZM118.828 9.35938V6.21875H121.953V9.35938H118.828ZM118.828 6.21875V3.15625H121.953V6.21875H118.828ZM115.688 3.15625V0.015625H118.828V3.15625H115.688ZM118.828 28.0938V31.1875H115.688V28.0938H118.828ZM115.688 28.0938V25.0312H118.828V28.0938H115.688ZM112.562 3.15625V0.015625H115.688V3.15625H112.562ZM115.688 28.0938V31.1875H112.562V28.0938H115.688ZM112.562 28.0938V25.0312H115.688V28.0938H112.562ZM109.422 3.15625V0.015625H112.562V3.15625H109.422ZM109.422 28.0938V25.0312H112.562V28.0938H109.422ZM109.422 25.0312V21.8906H112.562V25.0312H109.422ZM109.422 21.8906V18.7656H112.562V21.8906H109.422ZM109.422 12.5V9.35938H112.562V12.5H109.422ZM109.422 9.35938V6.21875H112.562V9.35938H109.422ZM109.422 6.21875V3.15625H112.562V6.21875H109.422ZM109.422 28.0938V31.1875H106.281V28.0938H109.422ZM106.281 28.0938V25.0312H109.422V28.0938H106.281ZM106.281 25.0312V21.8906H109.422V25.0312H106.281ZM106.281 21.8906V18.7656H109.422V21.8906H106.281ZM106.281 18.7656V15.625H109.422V18.7656H106.281ZM106.281 9.35938V6.21875H109.422V9.35938H106.281ZM106.281 6.21875V3.15625H109.422V6.21875H106.281ZM103.219 3.15625V0.015625H106.281V3.15625H103.219ZM106.281 28.0938V31.1875H103.219V28.0938H106.281ZM103.219 28.0938V25.0312H106.281V28.0938H103.219ZM103.219 25.0312V21.8906H106.281V25.0312H103.219ZM103.219 21.8906V18.7656H106.281V21.8906H103.219ZM103.219 18.7656V15.625H106.281V18.7656H103.219ZM103.219 15.625V12.5H106.281V15.625H103.219ZM103.219 6.21875V3.15625H106.281V6.21875H103.219ZM100.078 3.15625V0.015625H103.219V3.15625H100.078ZM103.219 28.0938V31.1875H100.078V28.0938H103.219ZM100.078 28.0938V25.0312H103.219V28.0938H100.078ZM96.9531 3.15625V0.015625H100.078V3.15625H96.9531ZM100.078 28.0938V31.1875H96.9531V28.0938H100.078ZM96.9531 28.0938V25.0312H100.078V28.0938H96.9531ZM93.8125 3.15625V0.015625H96.9531V3.15625H93.8125ZM93.8125 28.0938V25.0312H96.9531V28.0938H93.8125ZM93.8125 25.0312V21.8906H96.9531V25.0312H93.8125ZM93.8125 21.8906V18.7656H96.9531V21.8906H93.8125ZM93.8125 18.7656V15.625H96.9531V18.7656H93.8125ZM93.8125 15.625V12.5H96.9531V15.625H93.8125ZM93.8125 12.5V9.35938H96.9531V12.5H93.8125ZM93.8125 9.35938V6.21875H96.9531V9.35938H93.8125ZM93.8125 6.21875V3.15625H96.9531V6.21875H93.8125ZM153.188 28.0938V31.1875H150.109V28.0938H153.188ZM150.109 28.0938V25.0312H153.188V28.0938H150.109ZM150.109 25.0312V21.8906H153.188V25.0312H150.109ZM150.109 21.8906V18.7656H153.188V21.8906H150.109ZM150.109 18.7656V15.625H153.188V18.7656H150.109ZM150.109 15.625V12.5H153.188V15.625H150.109ZM150.109 12.5V9.35938H153.188V12.5H150.109ZM150.109 9.35938V6.21875H153.188V9.35938H150.109ZM150.109 28.0938V31.1875H146.984V28.0938H150.109ZM146.984 28.0938V25.0312H150.109V28.0938H146.984ZM146.984 25.0312V21.8906H150.109V25.0312H146.984ZM146.984 21.8906V18.7656H150.109V21.8906H146.984ZM146.984 18.7656V15.625H150.109V18.7656H146.984ZM146.984 15.625V12.5H150.109V15.625H146.984ZM146.984 12.5V9.35938H150.109V12.5H146.984ZM146.984 9.35938V6.21875H150.109V9.35938H146.984ZM146.984 6.21875V3.15625H150.109V6.21875H146.984ZM143.844 3.15625V0.015625H146.984V3.15625H143.844ZM146.984 28.0938V31.1875H143.844V28.0938H146.984ZM143.844 28.0938V25.0312H146.984V28.0938H143.844ZM143.844 12.5V9.35938H146.984V12.5H143.844ZM143.844 6.21875V3.15625H146.984V6.21875H143.844ZM140.719 3.15625V0.015625H143.844V3.15625H140.719ZM143.844 28.0938V31.1875H140.719V28.0938H143.844ZM140.719 28.0938V25.0312H143.844V28.0938H140.719ZM140.719 25.0312V21.8906H143.844V25.0312H140.719ZM140.719 12.5V9.35938H143.844V12.5H140.719ZM137.578 3.15625V0.015625H140.719V3.15625H137.578ZM140.719 28.0938V31.1875H137.578V28.0938H140.719ZM137.578 28.0938V25.0312H140.719V28.0938H137.578ZM137.578 21.8906V18.7656H140.719V21.8906H137.578ZM137.578 18.7656V15.625H140.719V18.7656H137.578ZM137.578 12.5V9.35938H140.719V12.5H137.578ZM137.578 9.35938V6.21875H140.719V9.35938H137.578ZM134.438 3.15625V0.015625H137.578V3.15625H134.438ZM137.578 28.0938V31.1875H134.438V28.0938H137.578ZM134.438 28.0938V25.0312H137.578V28.0938H134.438ZM134.438 21.8906V18.7656H137.578V21.8906H134.438ZM134.438 18.7656V15.625H137.578V18.7656H134.438ZM134.438 15.625V12.5H137.578V15.625H134.438ZM134.438 12.5V9.35938H137.578V12.5H134.438ZM134.438 9.35938V6.21875H137.578V9.35938H134.438ZM131.375 3.15625V0.015625H134.438V3.15625H131.375ZM134.438 28.0938V31.1875H131.375V28.0938H134.438ZM131.375 28.0938V25.0312H134.438V28.0938H131.375ZM131.375 21.8906V18.7656H134.438V21.8906H131.375ZM131.375 18.7656V15.625H134.438V18.7656H131.375ZM131.375 15.625V12.5H134.438V15.625H131.375ZM131.375 12.5V9.35938H134.438V12.5H131.375ZM131.375 9.35938V6.21875H134.438V9.35938H131.375ZM128.234 3.15625V0.015625H131.375V3.15625H128.234ZM131.375 28.0938V31.1875H128.234V28.0938H131.375ZM128.234 28.0938V25.0312H131.375V28.0938H128.234ZM125.109 3.15625V0.015625H128.234V3.15625H125.109ZM125.109 28.0938V25.0312H128.234V28.0938H125.109ZM125.109 25.0312V21.8906H128.234V25.0312H125.109ZM125.109 6.21875V3.15625H128.234V6.21875H125.109ZM121.969 25.0312V21.8906H125.109V25.0312H121.969ZM121.969 21.8906V18.7656H125.109V21.8906H121.969ZM121.969 18.7656V15.625H125.109V18.7656H121.969ZM121.969 15.625V12.5H125.109V15.625H121.969ZM121.969 12.5V9.35938H125.109V12.5H121.969ZM121.969 9.35938V6.21875H125.109V9.35938H121.969ZM121.969 6.21875V3.15625H125.109V6.21875H121.969ZM178.266 28.0938V25.0312H181.344V28.0938H178.266ZM178.266 25.0312V21.8906H181.344V25.0312H178.266ZM178.266 21.8906V18.7656H181.344V21.8906H178.266ZM178.266 18.7656V15.625H181.344V18.7656H178.266ZM178.266 15.625V12.5H181.344V15.625H178.266ZM178.266 12.5V9.35938H181.344V12.5H178.266ZM178.266 9.35938V6.21875H181.344V9.35938H178.266ZM178.266 28.0938V31.1875H175.141V28.0938H178.266ZM175.141 28.0938V25.0312H178.266V28.0938H175.141ZM175.141 25.0312V21.8906H178.266V25.0312H175.141ZM175.141 21.8906V18.7656H178.266V21.8906H175.141ZM175.141 18.7656V15.625H178.266V18.7656H175.141ZM175.141 15.625V12.5H178.266V15.625H175.141ZM175.141 12.5V9.35938H178.266V12.5H175.141ZM175.141 9.35938V6.21875H178.266V9.35938H175.141ZM175.141 6.21875V3.15625H178.266V6.21875H175.141ZM172 3.15625V0.015625H175.141V3.15625H172ZM175.141 28.0938V31.1875H172V28.0938H175.141ZM172 28.0938V25.0312H175.141V28.0938H172ZM172 25.0312V21.8906H175.141V25.0312H172ZM172 6.21875V3.15625H175.141V6.21875H172ZM168.875 3.15625V0.015625H172V3.15625H168.875ZM172 28.0938V31.1875H168.875V28.0938H172ZM168.875 28.0938V25.0312H172V28.0938H168.875ZM165.734 3.15625V0.015625H168.875V3.15625H165.734ZM168.875 28.0938V31.1875H165.734V28.0938H168.875ZM165.734 28.0938V25.0312H168.875V28.0938H165.734ZM165.734 21.8906V18.7656H168.875V21.8906H165.734ZM165.734 18.7656V15.625H168.875V18.7656H165.734ZM165.734 15.625V12.5H168.875V15.625H165.734ZM165.734 12.5V9.35938H168.875V12.5H165.734ZM165.734 9.35938V6.21875H168.875V9.35938H165.734ZM162.594 3.15625V0.015625H165.734V3.15625H162.594ZM165.734 28.0938V31.1875H162.594V28.0938H165.734ZM162.594 28.0938V25.0312H165.734V28.0938H162.594ZM162.594 21.8906V18.7656H165.734V21.8906H162.594ZM162.594 18.7656V15.625H165.734V18.7656H162.594ZM162.594 15.625V12.5H165.734V15.625H162.594ZM162.594 12.5V9.35938H165.734V12.5H162.594ZM162.594 9.35938V6.21875H165.734V9.35938H162.594ZM159.531 3.15625V0.015625H162.594V3.15625H159.531ZM162.594 28.0938V31.1875H159.531V28.0938H162.594ZM159.531 28.0938V25.0312H162.594V28.0938H159.531ZM159.531 21.8906V18.7656H162.594V21.8906H159.531ZM159.531 18.7656V15.625H162.594V18.7656H159.531ZM159.531 15.625V12.5H162.594V15.625H159.531ZM159.531 12.5V9.35938H162.594V12.5H159.531ZM159.531 9.35938V6.21875H162.594V9.35938H159.531ZM156.391 3.15625V0.015625H159.531V3.15625H156.391ZM159.531 28.0938V31.1875H156.391V28.0938H159.531ZM156.391 28.0938V25.0312H159.531V28.0938H156.391ZM153.266 3.15625V0.015625H156.391V3.15625H153.266ZM153.266 28.0938V25.0312H156.391V28.0938H153.266ZM153.266 25.0312V21.8906H156.391V25.0312H153.266ZM153.266 6.21875V3.15625H156.391V6.21875H153.266ZM150.125 25.0312V21.8906H153.266V25.0312H150.125ZM150.125 21.8906V18.7656H153.266V21.8906H150.125ZM150.125 18.7656V15.625H153.266V18.7656H150.125ZM150.125 15.625V12.5H153.266V15.625H150.125ZM150.125 12.5V9.35938H153.266V12.5H150.125ZM150.125 9.35938V6.21875H153.266V9.35938H150.125ZM150.125 6.21875V3.15625H153.266V6.21875H150.125Z" fill="black"/>
</svg>
