<svg xmlns:xlink="http://www.w3.org/1999/xlink" width="161" height="50" viewBox="0 0 209 65" fill="none" xmlns="http://www.w3.org/2000/svg"><path d="M27.8663 34.6322C27.8663 29.2637 23.6314 25.1956 18.6298 25.1956C13.4614 25.1956 9.15979 29.2637 9.15979 34.6322C9.15979 39.9007 13.4614 44.0022 18.5964 44.0022C23.6314 44.0022 27.8663 39.9007 27.8663 34.6322ZM36.4023 34.6656C36.4023 44.736 29.4002 52.3051 20.1637 52.3051C15.8288 52.3051 12.0609 50.5711 9.42664 47.5032L9.46 63.6088C9.46 64.276 9.05972 64.6758 8.45976 64.6758H2.09054C1.42387 64.6758 0.990234 64.276 0.990234 63.6088V18.66C0.990234 18.0267 1.42386 17.5931 2.05763 17.5931H5.75882C6.29206 17.5931 6.65898 17.8933 6.89247 18.3265L8.32634 23.0951C11.0273 19.1604 15.1955 16.8593 20.1971 16.8593C29.4002 16.8593 36.4023 24.3955 36.4023 34.6656Z" fill="#FFFFFF"></path><path d="M71.4047 31.3656V50.4386C71.4047 51.1057 71.0044 51.4727 70.3378 51.4727H64.0023C63.3352 51.4727 62.9349 51.1057 62.9349 50.4386V31.8655C62.9349 27.531 60.6676 24.4965 56.0992 24.4965C51.5979 24.4965 48.6968 27.9309 48.6968 31.999V50.4724C48.6968 51.1057 48.2965 51.4727 47.6632 51.4727H41.2277C40.5606 51.4727 40.2271 51.1057 40.2271 50.4724V1.72193C40.2271 1.05526 40.5606 0.721695 41.2277 0.721695H47.6632C48.2965 0.721695 48.6968 1.05526 48.6968 1.72193V21.7956C50.9312 18.7944 54.5991 16.794 58.6672 16.794C66.5699 16.794 71.4047 22.396 71.4047 31.3656Z" fill="#FFFFFF"></path><path d="M102.438 34.632C102.438 29.2968 98.1366 25.1954 93.0015 25.1954C87.9666 25.1954 83.765 29.2968 83.765 34.632C83.765 39.9005 87.9999 44.0019 93.0349 44.0019C98.1699 44.0019 102.438 39.9005 102.438 34.632ZM110.474 18.7599V50.5041C110.474 51.1379 110.041 51.5711 109.407 51.5711H105.706C105.172 51.5711 104.772 51.2713 104.572 50.8377L103.205 46.2693C100.504 50.0705 96.3692 52.3049 91.4676 52.3049C82.2311 52.3049 75.2286 44.7358 75.2286 34.6654C75.2286 24.3953 82.1977 16.859 91.4342 16.859C96.3358 16.859 100.504 19.0935 103.205 22.9614L104.572 18.393C104.772 17.9598 105.172 17.6596 105.706 17.6596H109.407C110.041 17.6596 110.474 18.0932 110.474 18.7599Z" fill="#FFFFFF"></path><path d="M147.562 18.6905L132.257 50.9013C131.924 51.5684 131.523 51.902 130.757 51.902H130.523C129.756 51.902 129.356 51.5684 129.022 50.9013L113.717 18.6905C113.317 17.8566 113.85 17.29 114.484 17.29H121.687C122.32 17.29 122.854 17.6903 123.087 18.2569L130.623 36.1633L138.159 18.2569C138.392 17.6903 138.959 17.29 139.593 17.29H146.795C147.429 17.29 147.962 17.8566 147.562 18.6905Z" fill="#FFFFFF"></path><path d="M153.89 31.3564L154.06 30.8038C155.247 26.9534 158.748 24.3674 162.771 24.3674C167.036 24.3674 170.645 26.957 171.751 30.8119L171.907 31.3564H153.89ZM162.971 17.2846C153.356 17.2846 145.825 24.9043 145.825 34.6308C145.825 44.3203 153.547 51.9102 163.404 51.9102C167.142 51.9102 172.267 50.0927 175.07 47.7731C175.36 47.5035 175.404 47.0356 175.157 46.6768L171.768 42.2251C171.507 41.8997 171.042 41.8249 170.74 42.0669C168.665 43.5882 165.619 44.7278 163.638 44.7278C159.303 44.7278 155.497 42.3378 154.168 38.7818L153.954 38.2053H175.409C177.665 38.2053 179.35 35.4376 179.35 32.9634C179.35 24.1718 172.155 17.2846 162.971 17.2846Z" fill="#FFFFFF"></path><path d="M208.659 20.696C208.648 20.6753 208.633 20.659 208.621 20.6392C208.592 20.6022 208.568 20.5648 208.534 20.5324C208.491 20.4801 208.459 20.4206 208.408 20.3778C206.106 18.4769 203.005 17.2432 200.338 17.2432C196.337 17.2432 192.268 19.8107 190.101 23.6119L188.634 18.7437C188.401 18.3106 188.034 18.0104 187.5 18.0104H183.799C183.165 18.0104 182.732 18.4435 182.732 19.1102V50.8883C182.732 51.555 183.098 51.9219 183.766 51.9219H190.168C190.801 51.9219 191.201 51.555 191.201 50.8883V33.3488C191.201 28.6136 194.669 24.5793 199.304 24.5793C200.805 24.5793 202.705 25.4127 204.239 26.6798C204.282 26.7168 204.326 26.7262 204.37 26.756C204.658 27.1279 205.178 27.3014 205.608 27.0449C206.083 26.7619 206.485 26.3909 206.84 25.9699C207.21 25.5322 207.585 25.0828 207.898 24.6032C208.558 23.5939 208.737 22.4138 208.834 21.236C208.851 21.0417 208.771 20.8578 208.659 20.696Z" fill="#FFFFFF"></path></svg>